<svg id="stars" data-name="stars" xmlns="http://www.w3.org/2000/svg" width="983.55" height="729.12" viewBox="0 0 983.55 729.12">
  <polygon points="233.83 357.04 233.61 356.7 233.21 356.69 233.47 356.38 233.36 355.99 233.73 356.14 234.07 355.91 234.04 356.32 234.36 356.56 233.97 356.67 233.83 357.04" fill="#fff"/>
  <polygon points="530.89 447.23 530.74 447.43 530.8 447.67 530.57 447.58 530.36 447.72 530.38 447.47 530.18 447.31 530.42 447.25 530.51 447.01 530.64 447.22 530.89 447.23" fill="#fff"/>
  <polygon points="448.2 392.42 448.27 392.62 448.46 392.53 448.37 392.72 448.57 392.79 448.37 392.85 448.46 393.04 448.27 392.95 448.2 393.15 448.13 392.95 447.95 393.04 448.04 392.85 447.84 392.79 448.04 392.72 447.95 392.53 448.13 392.62 448.2 392.42" fill="#fff"/>
  <polygon points="587.43 246.22 587.03 245.97 586.83 246.4 586.71 245.94 586.27 246.1 586.51 245.7 586.08 245.5 586.54 245.38 586.38 244.94 586.79 245.18 586.99 244.75 587.1 245.21 587.55 245.05 587.3 245.46 587.73 245.66 587.27 245.77 587.43 246.22" fill="#fff"/>
  <polygon points="520.88 339.85 521.85 339.94 521.84 338.97 522.46 339.72 523.14 339.03 523.05 339.99 524.03 339.99 523.28 340.61 523.97 341.29 523 341.2 523.01 342.17 522.39 341.42 521.71 342.12 521.8 341.15 520.83 341.16 521.58 340.54 520.88 339.85" fill="#fff"/>
  <polygon points="305.66 490.23 305.34 490 305.14 490.35 305.08 489.96 304.7 490.06 304.92 489.74 304.58 489.55 304.97 489.48 304.86 489.1 305.18 489.33 305.38 488.99 305.44 489.37 305.82 489.27 305.6 489.59 305.94 489.78 305.55 489.85 305.66 490.23" fill="#fff"/>
  <polygon points="304.11 450.02 303.99 449.69 303.67 449.83 303.83 449.52 303.5 449.4 303.83 449.28 303.68 448.96 304 449.12 304.12 448.79 304.23 449.12 304.55 448.97 304.4 449.29 304.73 449.41 304.4 449.52 304.54 449.84 304.23 449.69 304.11 450.02" fill="#fff"/>
  <polygon points="299.04 396.02 298.84 395.65 298.5 395.89 298.62 395.49 298.21 395.42 298.57 395.22 298.34 394.88 298.74 394.99 298.81 394.58 299.01 394.95 299.35 394.71 299.24 395.11 299.64 395.19 299.28 395.38 299.52 395.73 299.12 395.61 299.04 396.02" fill="#fff"/>
  <polygon points="402.02 400.26 402.15 400.64 402.52 400.47 402.35 400.83 402.72 400.96 402.35 401.1 402.52 401.46 402.15 401.29 402.02 401.67 401.89 401.29 401.52 401.46 401.7 401.1 401.32 400.96 401.7 400.83 401.52 400.47 401.89 400.64 402.02 400.26" fill="#fff"/>
  <polygon points="389.72 344.51 389.65 344.43 389.58 344.5 389.59 344.4 389.49 344.41 389.57 344.34 389.5 344.27 389.6 344.28 389.6 344.18 389.66 344.26 389.73 344.19 389.72 344.29 389.82 344.28 389.75 344.35 389.82 344.42 389.72 344.41 389.72 344.51" fill="#fff"/>
  <polygon points="611.45 468.65 611.32 468.8 611.37 469 611.18 468.93 611.01 469.04 611.02 468.84 610.86 468.71 611.06 468.66 611.13 468.47 611.24 468.64 611.45 468.65" fill="#fff"/>
  <polygon points="548.4 413.72 548.49 413.97 548.72 413.86 548.61 414.09 548.85 414.17 548.61 414.26 548.72 414.49 548.49 414.38 548.4 414.63 548.32 414.38 548.08 414.49 548.19 414.26 547.95 414.17 548.19 414.09 548.08 413.86 548.32 413.97 548.4 413.72" fill="#fff"/>
  <polygon points="641.73 266.86 641.03 266.44 640.69 267.17 640.49 266.39 639.73 266.66 640.15 265.97 639.42 265.62 640.2 265.43 639.93 264.67 640.62 265.08 640.97 264.35 641.16 265.13 641.92 264.86 641.51 265.55 642.24 265.9 641.45 266.09 641.73 266.86" fill="#fff"/>
  <polygon points="714.9 361.37 715.7 361.44 715.69 360.64 716.21 361.26 716.77 360.68 716.7 361.48 717.5 361.48 716.88 361.99 717.46 362.55 716.65 362.48 716.66 363.28 716.15 362.66 715.59 363.24 715.66 362.44 714.86 362.44 715.48 361.93 714.9 361.37" fill="#fff"/>
  <polygon points="406.01 511.72 405.63 511.45 405.41 511.86 405.33 511.4 404.88 511.52 405.15 511.14 404.74 510.92 405.2 510.84 405.07 510.39 405.45 510.66 405.68 510.25 405.76 510.71 406.2 510.59 405.94 510.96 406.34 511.19 405.89 511.27 406.01 511.72" fill="#fff"/>
  <polygon points="497.56 471.16 497.5 470.96 497.31 471.05 497.4 470.86 497.2 470.79 497.4 470.72 497.31 470.53 497.5 470.62 497.57 470.42 497.64 470.62 497.83 470.53 497.74 470.72 497.94 470.8 497.74 470.87 497.83 471.06 497.64 470.96 497.56 471.16" fill="#fff"/>
  <polygon points="421.97 417.23 421.81 416.96 421.56 417.14 421.64 416.83 421.34 416.78 421.61 416.63 421.43 416.37 421.73 416.46 421.79 416.15 421.94 416.42 422.2 416.25 422.11 416.55 422.42 416.6 422.14 416.75 422.32 417.01 422.02 416.92 421.97 417.23" fill="#fff"/>
  <polygon points="476.06 421.58 476.21 422 476.61 421.81 476.42 422.2 476.83 422.35 476.42 422.5 476.61 422.9 476.21 422.71 476.06 423.13 475.91 422.71 475.51 422.9 475.7 422.5 475.28 422.35 475.7 422.2 475.51 421.81 475.91 422 476.06 421.58" fill="#fff"/>
  <polygon points="496.57 365.98 496.47 365.86 496.37 365.97 496.38 365.82 496.23 365.83 496.35 365.73 496.24 365.63 496.39 365.64 496.38 365.49 496.48 365.61 496.58 365.5 496.57 365.65 496.72 365.64 496.6 365.74 496.71 365.84 496.56 365.83 496.57 365.98" fill="#fff"/>
  <polygon points="304.1 174.88 303.77 174.38 303.18 174.35 303.56 173.89 303.39 173.32 303.95 173.54 304.44 173.2 304.41 173.8 304.88 174.17 304.3 174.32 304.1 174.88" fill="#fff"/>
  <polygon points="584 264.82 583.87 264.98 583.92 265.18 583.73 265.1 583.56 265.22 583.57 265.01 583.41 264.88 583.61 264.83 583.68 264.64 583.79 264.81 584 264.82" fill="#fff"/>
  <polygon points="562.69 209.95 562.77 210.16 562.97 210.06 562.88 210.27 563.09 210.35 562.88 210.42 562.97 210.63 562.77 210.53 562.69 210.75 562.61 210.53 562.41 210.63 562.51 210.42 562.29 210.35 562.51 210.27 562.41 210.06 562.61 210.16 562.69 209.95" fill="#fff"/>
  <polygon points="733.67 63.88 733.2 63.59 732.97 64.09 732.84 63.56 732.33 63.74 732.61 63.28 732.12 63.05 732.64 62.92 732.46 62.4 732.93 62.68 733.16 62.19 733.29 62.72 733.8 62.53 733.52 63 734.01 63.23 733.48 63.36 733.67 63.88" fill="#fff"/>
  <polygon points="701.57 157 702.29 157.07 702.29 156.34 702.75 156.9 703.26 156.38 703.19 157.11 703.91 157.1 703.36 157.56 703.87 158.07 703.15 158 703.16 158.73 702.7 158.17 702.19 158.69 702.25 157.97 701.53 157.97 702.09 157.51 701.57 157" fill="#fff"/>
  <polygon points="416.94 307.93 416.53 307.65 416.29 308.08 416.21 307.59 415.74 307.73 416.02 307.32 415.59 307.08 416.07 307 415.94 306.53 416.34 306.81 416.58 306.38 416.67 306.86 417.14 306.73 416.86 307.13 417.29 307.37 416.8 307.46 416.94 307.93" fill="#fff"/>
  <polygon points="398.69 267.53 398.58 267.22 398.29 267.36 398.44 267.07 398.13 266.96 398.44 266.86 398.3 266.57 398.59 266.71 398.7 266.4 398.81 266.71 399.1 266.57 398.95 266.86 399.26 266.97 398.95 267.08 399.09 267.37 398.8 267.23 398.69 267.53" fill="#fff"/>
  <polygon points="411.52 213.38 411.37 213.12 411.12 213.29 411.21 213 410.91 212.95 411.18 212.8 411 212.56 411.29 212.64 411.35 212.34 411.49 212.61 411.74 212.44 411.65 212.73 411.95 212.78 411.69 212.93 411.86 213.17 411.57 213.09 411.52 213.38" fill="#fff"/>
  <polygon points="451.69 218.15 451.76 218.35 451.96 218.26 451.86 218.45 452.07 218.53 451.86 218.6 451.96 218.79 451.76 218.7 451.69 218.9 451.62 218.7 451.42 218.79 451.52 218.6 451.31 218.53 451.52 218.45 451.42 218.26 451.62 218.35 451.69 218.15" fill="#fff"/>
  <polygon points="531.48 162.4 531.29 162.17 531.08 162.38 531.11 162.09 530.81 162.09 531.04 161.9 530.82 161.69 531.12 161.72 531.11 161.42 531.31 161.65 531.51 161.43 531.49 161.73 531.79 161.72 531.56 161.92 531.77 162.12 531.48 162.1 531.48 162.4" fill="#fff"/>
  <polygon points="96.42 295.71 96.09 295.18 95.46 295.16 95.86 294.67 95.69 294.07 96.27 294.3 96.79 293.95 96.75 294.57 97.25 294.96 96.64 295.12 96.42 295.71" fill="#fff"/>
  <polygon points="349 385.59 348.84 385.77 348.91 386 348.69 385.92 348.49 386.05 348.5 385.81 348.31 385.66 348.55 385.6 348.63 385.38 348.76 385.58 349 385.59" fill="#fff"/>
  <polygon points="317.57 330.76 317.64 330.96 317.83 330.87 317.74 331.06 317.94 331.13 317.74 331.21 317.83 331.4 317.64 331.31 317.57 331.51 317.5 331.31 317.3 331.4 317.4 331.21 317.19 331.13 317.4 331.06 317.3 330.87 317.5 330.96 317.57 330.76" fill="#fff"/>
  <polygon points="404.28 185.02 403.58 184.6 403.24 185.33 403.05 184.55 402.29 184.82 402.7 184.13 401.98 183.79 402.76 183.59 402.48 182.84 403.17 183.25 403.52 182.52 403.71 183.3 404.47 183.03 404.06 183.72 404.79 184.06 404 184.26 404.28 185.02" fill="#fff"/>
  <polygon points="384.48 278.09 385.6 278.19 385.59 277.06 386.31 277.93 387.1 277.13 387 278.25 388.13 278.24 387.26 278.96 388.06 279.75 386.94 279.65 386.95 280.77 386.23 279.91 385.44 280.71 385.55 279.59 384.42 279.6 385.29 278.88 384.48 278.09" fill="#fff"/>
  <polygon points="172.58 428.63 172.23 428.38 172.02 428.76 171.94 428.33 171.53 428.45 171.78 428.1 171.4 427.89 171.82 427.81 171.71 427.4 172.06 427.65 172.27 427.27 172.34 427.69 172.76 427.58 172.51 427.93 172.89 428.14 172.46 428.21 172.58 428.63" fill="#fff"/>
  <polygon points="192.62 388.25 192.53 387.98 192.27 388.11 192.39 387.85 192.12 387.75 192.4 387.65 192.27 387.39 192.53 387.52 192.63 387.25 192.72 387.52 192.99 387.4 192.86 387.66 193.13 387.76 192.86 387.85 192.98 388.11 192.72 387.99 192.62 388.25" fill="#fff"/>
  <polygon points="204.24 334.22 204.08 333.93 203.81 334.12 203.9 333.8 203.57 333.74 203.86 333.58 203.68 333.31 203.99 333.4 204.05 333.08 204.21 333.37 204.48 333.18 204.39 333.5 204.71 333.56 204.42 333.72 204.61 333.99 204.29 333.9 204.24 334.22" fill="#fff"/>
  <polygon points="193.8 338.59 193.94 338.98 194.31 338.8 194.13 339.17 194.52 339.31 194.13 339.45 194.31 339.83 193.94 339.65 193.8 340.04 193.66 339.65 193.28 339.83 193.46 339.45 193.07 339.31 193.46 339.17 193.28 338.8 193.66 338.98 193.8 338.59" fill="#fff"/>
  <polygon points="230.71 283.14 230.53 282.93 230.34 283.13 230.37 282.86 230.09 282.86 230.3 282.69 230.11 282.5 230.38 282.52 230.37 282.25 230.55 282.46 230.73 282.26 230.71 282.53 230.98 282.53 230.78 282.7 230.97 282.89 230.7 282.87 230.71 283.14" fill="#fff"/>
  <polygon points="608.27 573.99 607.85 573.33 607.07 573.3 607.57 572.69 607.35 571.94 608.08 572.22 608.73 571.78 608.68 572.57 609.3 573.05 608.54 573.25 608.27 573.99" fill="#fff"/>
  <polygon points="917.76 663.72 917.69 663.8 917.72 663.9 917.62 663.87 917.53 663.92 917.53 663.82 917.45 663.75 917.55 663.72 917.59 663.62 917.65 663.71 917.76 663.72" fill="#fff"/>
  <polygon points="888.57 608.76 888.66 608.99 888.88 608.89 888.77 609.11 889.01 609.19 888.77 609.28 888.88 609.5 888.66 609.39 888.57 609.63 888.49 609.39 888.26 609.5 888.37 609.28 888.14 609.19 888.37 609.11 888.26 608.89 888.49 608.99 888.57 608.76" fill="#fff"/>
  <polygon points="874.6 463.42 873.69 462.87 873.24 463.83 872.99 462.81 871.99 463.17 872.53 462.26 871.57 461.81 872.6 461.55 872.24 460.55 873.15 461.1 873.6 460.14 873.86 461.17 874.86 460.81 874.31 461.71 875.27 462.17 874.24 462.42 874.6 463.42" fill="#fff"/>
  <polygon points="919.09 556.33 919.96 556.41 919.95 555.53 920.51 556.21 921.13 555.58 921.05 556.46 921.93 556.45 921.25 557.01 921.88 557.63 921 557.54 921.01 558.42 920.45 557.75 919.84 558.38 919.92 557.5 919.04 557.51 919.72 556.95 919.09 556.33" fill="#fff"/>
  <polygon points="637.76 706.57 637.48 706.37 637.32 706.67 637.26 706.33 636.93 706.42 637.12 706.14 636.82 705.97 637.16 705.91 637.07 705.58 637.35 705.78 637.52 705.48 637.58 705.82 637.91 705.73 637.71 706.01 638.01 706.17 637.67 706.23 637.76 706.57" fill="#fff"/>
  <polygon points="746.09 666.5 745.96 666.13 745.6 666.3 745.77 665.94 745.4 665.81 745.78 665.68 745.61 665.32 745.97 665.49 746.1 665.12 746.23 665.5 746.59 665.33 746.41 665.68 746.78 665.82 746.41 665.95 746.58 666.3 746.22 666.13 746.09 666.5" fill="#fff"/>
  <polygon points="696.31 612.19 696.18 611.95 695.95 612.11 696.03 611.84 695.75 611.79 696 611.65 695.84 611.42 696.11 611.5 696.16 611.23 696.29 611.47 696.52 611.32 696.44 611.58 696.72 611.63 696.47 611.77 696.63 612 696.36 611.92 696.31 612.19" fill="#fff"/>
  <polygon points="660.79 616.45 660.97 616.94 661.45 616.72 661.22 617.2 661.72 617.37 661.22 617.55 661.45 618.03 660.97 617.8 660.79 618.3 660.62 617.8 660.14 618.03 660.37 617.55 659.87 617.37 660.37 617.2 660.14 616.72 660.62 616.94 660.79 616.45" fill="#fff"/>
  <polygon points="787.11 561.08 786.99 560.93 786.85 561.07 786.87 560.87 786.67 560.88 786.82 560.75 786.68 560.61 786.87 560.63 786.87 560.43 787 560.58 787.13 560.44 787.12 560.63 787.31 560.63 787.16 560.76 787.3 560.89 787.11 560.88 787.11 561.08" fill="#fff"/>
  <polygon points="670.02 364.28 669.44 363.37 668.36 363.33 669.05 362.5 668.75 361.46 669.75 361.86 670.65 361.26 670.58 362.33 671.43 363 670.39 363.27 670.02 364.28" fill="#fff"/>
  <polygon points="925.28 453.52 925.12 453.72 925.19 453.98 924.94 453.88 924.72 454.03 924.74 453.76 924.53 453.6 924.79 453.53 924.88 453.28 925.02 453.51 925.28 453.52" fill="#fff"/>
  <polygon points="864.16 398.71 864.23 398.91 864.42 398.82 864.33 399.01 864.53 399.08 864.33 399.15 864.42 399.33 864.23 399.25 864.16 399.44 864.09 399.25 863.9 399.33 863.99 399.15 863.8 399.08 863.99 399.01 863.9 398.82 864.09 398.91 864.16 398.71" fill="#fff"/>
  <polygon points="955.5 253.31 954.59 252.76 954.14 253.72 953.88 252.69 952.88 253.05 953.43 252.14 952.47 251.69 953.5 251.43 953.14 250.43 954.05 250.98 954.5 250.01 954.76 251.05 955.76 250.69 955.21 251.6 956.17 252.05 955.14 252.31 955.5 253.31" fill="#fff"/>
  <polygon points="720.63 496.44 720.35 496.25 720.19 496.54 720.13 496.21 719.8 496.3 720 496.02 719.7 495.86 720.04 495.8 719.95 495.47 720.22 495.67 720.39 495.37 720.45 495.71 720.77 495.61 720.58 495.89 720.87 496.06 720.54 496.11 720.63 496.44" fill="#fff"/>
  <polygon points="730.81 456.53 730.65 456.08 730.22 456.28 730.43 455.85 729.98 455.69 730.43 455.53 730.23 455.1 730.66 455.31 730.82 454.86 730.98 455.31 731.41 455.11 731.2 455.54 731.65 455.7 731.2 455.86 731.4 456.29 730.97 456.08 730.81 456.53" fill="#fff"/>
  <polygon points="752.55 402.45 752.31 402.02 751.9 402.3 752.04 401.82 751.55 401.73 751.99 401.49 751.71 401.08 752.18 401.22 752.27 400.73 752.51 401.17 752.92 400.89 752.78 401.36 753.27 401.45 752.84 401.69 753.12 402.1 752.64 401.96 752.55 402.45" fill="#fff"/>
  <polygon points="732.3 406.69 732.4 406.99 732.7 406.85 732.56 407.15 732.86 407.25 732.56 407.36 732.7 407.65 732.4 407.52 732.3 407.82 732.19 407.52 731.89 407.65 732.03 407.36 731.73 407.25 732.03 407.15 731.89 406.85 732.19 406.99 732.3 406.69" fill="#fff"/>
  <polygon points="760.58 351.2 760.35 350.94 760.11 351.19 760.14 350.84 759.8 350.85 760.06 350.63 759.81 350.39 760.16 350.42 760.15 350.07 760.37 350.33 760.61 350.09 760.58 350.43 760.93 350.42 760.66 350.64 760.91 350.88 760.57 350.86 760.58 351.2" fill="#fff"/>
  <polygon points="583.07 185.27 582.62 184.57 581.79 184.54 582.32 183.9 582.09 183.1 582.86 183.41 583.55 182.94 583.5 183.77 584.16 184.28 583.35 184.49 583.07 185.27" fill="#fff"/>
  <polygon points="870.11 274.9 870 275.04 870.04 275.21 869.88 275.14 869.73 275.24 869.74 275.06 869.6 274.95 869.78 274.91 869.84 274.74 869.93 274.89 870.11 274.9" fill="#fff"/>
  <polygon points="850.64 220.09 850.7 220.26 850.87 220.18 850.79 220.35 850.97 220.41 850.79 220.48 850.87 220.65 850.7 220.56 850.64 220.74 850.58 220.56 850.41 220.65 850.49 220.48 850.31 220.41 850.49 220.35 850.41 220.18 850.58 220.26 850.64 220.09" fill="#fff"/>
  <polygon points="982.88 74.64 981.98 74.09 981.53 75.05 981.27 74.02 980.27 74.38 980.82 73.47 979.86 73.03 980.89 72.77 980.53 71.77 981.44 72.32 981.89 71.36 982.14 72.39 983.14 72.03 982.59 72.94 983.55 73.39 982.52 73.64 982.88 74.64" fill="#fff"/>
  <polygon points="931.02 167.72 931.67 167.78 931.67 167.12 932.09 167.63 932.54 167.16 932.48 167.81 933.14 167.81 932.63 168.22 933.1 168.68 932.45 168.62 932.46 169.27 932.04 168.77 931.58 169.24 931.64 168.59 930.99 168.59 931.49 168.17 931.02 167.72" fill="#fff"/>
  <polygon points="684.39 318.11 683.93 317.78 683.65 318.28 683.55 317.72 683 317.87 683.33 317.4 682.83 317.13 683.39 317.03 683.24 316.48 683.71 316.81 683.98 316.31 684.08 316.87 684.63 316.72 684.3 317.18 684.8 317.46 684.24 317.56 684.39 318.11" fill="#fff"/>
  <polygon points="726.22 277.9 726.05 277.43 725.61 277.64 725.82 277.19 725.36 277.02 725.83 276.86 725.62 276.41 726.06 276.63 726.23 276.16 726.39 276.63 726.84 276.42 726.63 276.87 727.09 277.04 726.62 277.2 726.83 277.65 726.39 277.43 726.22 277.9" fill="#fff"/>
  <polygon points="710.85 223.31 710.75 223.12 710.57 223.24 710.63 223.03 710.41 222.99 710.6 222.88 710.48 222.7 710.69 222.76 710.73 222.55 710.84 222.74 711.02 222.62 710.96 222.83 711.17 222.87 710.98 222.97 711.11 223.16 710.89 223.09 710.85 223.31" fill="#fff"/>
  <polygon points="756.15 228.16 756.24 228.39 756.46 228.29 756.36 228.51 756.59 228.59 756.36 228.67 756.46 228.9 756.24 228.79 756.15 229.02 756.07 228.79 755.85 228.9 755.96 228.67 755.72 228.59 755.96 228.51 755.85 228.29 756.07 228.39 756.15 228.16" fill="#fff"/>
  <polygon points="770.85 172.46 770.66 172.23 770.46 172.44 770.48 172.15 770.18 172.16 770.41 171.97 770.2 171.76 770.49 171.78 770.49 171.49 770.68 171.72 770.88 171.5 770.86 171.8 771.15 171.79 770.93 171.98 771.14 172.19 770.85 172.16 770.85 172.46" fill="#fff"/>
  <polygon points="283.04 38.51 282.42 37.54 281.27 37.5 282 36.61 281.69 35.51 282.75 35.93 283.71 35.29 283.64 36.44 284.54 37.14 283.43 37.43 283.04 38.51" fill="#fff"/>
  <polygon points="588.37 127.65 588.21 127.85 588.28 128.09 588.04 128 587.84 128.13 587.85 127.89 587.65 127.73 587.9 127.67 587.98 127.44 588.12 127.64 588.37 127.65" fill="#fff"/>
  <polygon points="517.36 72.8 517.44 73.02 517.65 72.92 517.55 73.13 517.77 73.2 517.55 73.28 517.65 73.5 517.44 73.39 517.36 73.62 517.28 73.39 517.07 73.5 517.17 73.28 516.95 73.2 517.17 73.13 517.07 72.92 517.28 73.02 517.36 72.8" fill="#fff"/>
  <polygon points="641.55 20.43 642.32 20.5 642.31 19.73 642.8 20.32 643.33 19.77 643.26 20.54 644.03 20.53 643.44 21.02 643.99 21.55 643.22 21.48 643.23 22.25 642.74 21.66 642.2 22.21 642.27 21.44 641.51 21.45 642.1 20.96 641.55 20.43" fill="#fff"/>
  <polygon points="437.92 170.38 437.75 170.26 437.64 170.45 437.61 170.24 437.41 170.3 437.53 170.13 437.34 170.02 437.55 169.99 437.49 169.79 437.66 169.91 437.77 169.72 437.8 169.93 438 169.87 437.88 170.04 438.07 170.15 437.86 170.18 437.92 170.38" fill="#fff"/>
  <polygon points="460.37 130.26 460.29 130.03 460.06 130.13 460.17 129.91 459.94 129.82 460.18 129.74 460.07 129.51 460.3 129.62 460.38 129.39 460.46 129.62 460.69 129.52 460.58 129.74 460.81 129.83 460.58 129.91 460.68 130.14 460.46 130.03 460.37 130.26" fill="#fff"/>
  <polygon points="434.17 76.56 433.94 76.13 433.54 76.41 433.68 75.94 433.2 75.86 433.63 75.62 433.35 75.23 433.82 75.36 433.9 74.89 434.13 75.31 434.53 75.04 434.4 75.5 434.87 75.59 434.45 75.82 434.72 76.22 434.26 76.08 434.17 76.56" fill="#fff"/>
  <polygon points="426.64 80.64 426.79 81.04 427.17 80.86 426.99 81.24 427.39 81.38 426.99 81.53 427.17 81.91 426.79 81.73 426.64 82.13 426.5 81.73 426.12 81.91 426.3 81.53 425.9 81.38 426.3 81.24 426.12 80.86 426.5 81.04 426.64 80.64" fill="#fff"/>
  <polygon points="424.08 25.32 423.86 25.06 423.63 25.3 423.65 24.97 423.32 24.97 423.57 24.76 423.33 24.52 423.67 24.55 423.66 24.21 423.88 24.47 424.11 24.23 424.08 24.56 424.42 24.56 424.16 24.77 424.41 25.01 424.07 24.98 424.08 25.32" fill="#fff"/>
  <polygon points="785.21 79.85 785.07 80.03 785.13 80.25 784.92 80.16 784.73 80.29 784.75 80.06 784.57 79.93 784.79 79.87 784.86 79.66 784.98 79.85 785.21 79.85" fill="#fff"/>
  <polygon points="772.29 25.15 772.34 25.28 772.46 25.22 772.4 25.35 772.53 25.39 772.4 25.44 772.46 25.57 772.34 25.51 772.29 25.64 772.24 25.51 772.12 25.57 772.18 25.44 772.05 25.39 772.18 25.35 772.12 25.22 772.24 25.28 772.29 25.15" fill="#fff"/>
  <polygon points="539.62 122.88 539.27 122.64 539.06 123.01 538.99 122.59 538.58 122.7 538.83 122.36 538.46 122.15 538.87 122.08 538.76 121.67 539.11 121.91 539.31 121.54 539.39 121.96 539.79 121.84 539.55 122.19 539.92 122.4 539.5 122.47 539.62 122.88" fill="#fff"/>
  <polygon points="593.93 82.67 593.81 82.31 593.47 82.47 593.64 82.14 593.29 82.01 593.64 81.88 593.48 81.55 593.82 81.71 593.95 81.36 594.07 81.71 594.41 81.55 594.24 81.89 594.6 82.02 594.24 82.14 594.4 82.48 594.06 82.32 593.93 82.67" fill="#fff"/>
  <polygon points="611.33 28.24 611.24 28.07 611.08 28.18 611.13 28 610.94 27.96 611.11 27.87 611 27.71 611.19 27.77 611.22 27.58 611.31 27.75 611.47 27.64 611.42 27.82 611.61 27.86 611.44 27.95 611.55 28.11 611.36 28.05 611.33 28.24" fill="#fff"/>
  <polygon points="608.81 32.72 608.97 33.18 609.41 32.97 609.2 33.41 609.66 33.57 609.2 33.73 609.41 34.17 608.97 33.96 608.81 34.42 608.64 33.96 608.21 34.17 608.41 33.73 607.96 33.57 608.41 33.41 608.21 32.97 608.64 33.18 608.81 32.72" fill="#fff"/>
  <polygon points="392.81 54.76 392.75 54.83 392.77 54.92 392.69 54.89 392.61 54.94 392.62 54.85 392.54 54.79 392.63 54.77 392.66 54.68 392.71 54.76 392.81 54.76" fill="#fff"/>
  <polygon points="320.42 0 320.46 0.12 320.58 0.07 320.52 0.19 320.65 0.23 320.52 0.27 320.58 0.39 320.46 0.34 320.42 0.46 320.37 0.34 320.25 0.39 320.31 0.27 320.19 0.23 320.31 0.19 320.25 0.07 320.37 0.12 320.42 0" fill="#fff"/>
  <polygon points="186.63 97.46 186.43 97.32 186.31 97.53 186.26 97.29 186.03 97.36 186.17 97.16 185.95 97.04 186.2 97 186.13 96.76 186.33 96.9 186.45 96.69 186.49 96.93 186.73 96.86 186.59 97.06 186.8 97.18 186.56 97.22 186.63 97.46" fill="#fff"/>
  <polygon points="193.29 57.57 193.16 57.18 192.78 57.36 192.96 56.98 192.57 56.84 192.97 56.71 192.79 56.33 193.16 56.51 193.31 56.12 193.44 56.52 193.82 56.34 193.64 56.71 194.03 56.85 193.63 56.99 193.81 57.37 193.44 57.19 193.29 57.57" fill="#fff"/>
  <polygon points="229.03 3.76 228.75 3.24 228.27 3.58 228.43 3.02 227.86 2.91 228.37 2.63 228.04 2.15 228.6 2.31 228.7 1.74 228.98 2.25 229.47 1.92 229.3 2.48 229.88 2.58 229.37 2.86 229.7 3.35 229.14 3.18 229.03 3.76" fill="#fff"/>
  <polygon points="227.31 7.91 227.4 8.18 227.66 8.06 227.54 8.31 227.81 8.41 227.54 8.5 227.66 8.76 227.4 8.64 227.31 8.9 227.22 8.64 226.96 8.76 227.08 8.5 226.81 8.41 227.08 8.31 226.96 8.06 227.22 8.18 227.31 7.91" fill="#fff"/>
  <polygon points="186.76 238.43 186.67 238.54 186.71 238.68 186.57 238.63 186.45 238.71 186.46 238.56 186.35 238.47 186.49 238.44 186.54 238.3 186.62 238.42 186.76 238.43" fill="#fff"/>
  <polygon points="135.22 183.62 135.28 183.79 135.44 183.71 135.36 183.87 135.53 183.93 135.36 183.98 135.44 184.14 135.28 184.07 135.22 184.23 135.16 184.07 135.01 184.14 135.08 183.98 134.92 183.93 135.08 183.87 135.01 183.71 135.16 183.79 135.22 183.62" fill="#fff"/>
  <polygon points="264.07 37.9 263.32 37.45 262.95 38.24 262.73 37.4 261.91 37.69 262.36 36.94 261.57 36.57 262.42 36.36 262.12 35.53 262.87 35.98 263.24 35.19 263.46 36.04 264.28 35.74 263.83 36.49 264.62 36.87 263.77 37.08 264.07 37.9" fill="#fff"/>
  <polygon points="286.57 131.35 287.07 131.39 287.06 130.9 287.38 131.28 287.73 130.93 287.68 131.42 288.17 131.41 287.79 131.73 288.14 132.07 287.65 132.03 287.66 132.52 287.34 132.14 287 132.5 287.04 132 286.55 132.01 286.93 131.69 286.57 131.35" fill="#fff"/>
  <polygon points="36.74 281.31 36.46 281.11 36.28 281.41 36.23 281.07 35.89 281.16 36.09 280.87 35.78 280.7 36.13 280.64 36.03 280.31 36.32 280.51 36.49 280.2 36.55 280.55 36.89 280.45 36.69 280.74 36.99 280.91 36.65 280.97 36.74 281.31" fill="#fff"/>
  <polygon points="0.79 241.34 0.64 240.91 0.23 241.1 0.43 240.69 0 240.54 0.43 240.39 0.24 239.98 0.65 240.18 0.8 239.75 0.95 240.18 1.36 239.99 1.17 240.4 1.59 240.55 1.16 240.7 1.35 241.11 0.94 240.91 0.79 241.34" fill="#fff"/>
  <polygon points="84.61 186.94 84.47 186.69 84.23 186.85 84.31 186.57 84.03 186.52 84.28 186.38 84.12 186.15 84.4 186.23 84.45 185.94 84.59 186.19 84.83 186.03 84.75 186.31 85.03 186.36 84.78 186.5 84.94 186.74 84.66 186.66 84.61 186.94" fill="#fff"/>
  <polygon points="138.28 135.9 138.11 135.71 137.94 135.89 137.96 135.64 137.7 135.64 137.9 135.48 137.71 135.3 137.97 135.32 137.96 135.07 138.13 135.26 138.3 135.08 138.28 135.33 138.54 135.33 138.34 135.49 138.53 135.67 138.27 135.65 138.28 135.9" fill="#fff"/>
  <polygon points="222.03 472.38 221.86 472.6 221.93 472.86 221.68 472.76 221.45 472.91 221.47 472.64 221.25 472.47 221.51 472.4 221.61 472.14 221.76 472.38 222.03 472.38" fill="#fff"/>
  <polygon points="167.19 417.75 167.23 417.86 167.34 417.81 167.29 417.91 167.39 417.95 167.29 417.99 167.34 418.09 167.23 418.04 167.19 418.15 167.16 418.04 167.05 418.09 167.1 417.99 166.99 417.95 167.1 417.91 167.05 417.81 167.16 417.86 167.19 417.75" fill="#fff"/>
  <polygon points="267.65 270.62 266.87 270.15 266.49 270.97 266.27 270.09 265.41 270.4 265.88 269.62 265.06 269.23 265.94 269.01 265.63 268.16 266.41 268.63 266.8 267.81 267.01 268.69 267.87 268.38 267.4 269.16 268.22 269.54 267.34 269.76 267.65 270.62" fill="#fff"/>
  <polygon points="308.14 364.73 309.01 364.81 309.01 363.93 309.57 364.61 310.18 363.98 310.1 364.86 310.98 364.85 310.3 365.41 310.93 366.02 310.06 365.94 310.06 366.82 309.5 366.15 308.89 366.77 308.97 365.9 308.09 365.91 308.77 365.35 308.14 364.73" fill="#fff"/>
  <polygon points="23.35 515.07 23.21 514.98 23.13 515.12 23.1 514.96 22.93 515 23.03 514.86 22.88 514.78 23.05 514.75 23 514.59 23.14 514.68 23.23 514.53 23.25 514.7 23.42 514.66 23.32 514.8 23.47 514.88 23.3 514.91 23.35 515.07" fill="#fff"/>
  <polygon points="2.72 475.26 2.6 474.89 2.23 475.05 2.41 474.7 2.04 474.56 2.41 474.43 2.24 474.07 2.6 474.25 2.74 473.87 2.87 474.25 3.23 474.08 3.05 474.44 3.42 474.57 3.05 474.7 3.22 475.06 2.86 474.89 2.72 475.26" fill="#fff"/>
  <polygon points="49.49 421.32 49.25 420.89 48.84 421.17 48.98 420.69 48.49 420.61 48.93 420.37 48.65 419.96 49.13 420.1 49.21 419.61 49.45 420.04 49.86 419.76 49.72 420.24 50.21 420.33 49.78 420.56 50.06 420.97 49.58 420.83 49.49 421.32" fill="#fff"/>
  <polygon points="47.55 425.34 47.7 425.76 48.11 425.57 47.92 425.98 48.34 426.13 47.92 426.28 48.11 426.68 47.7 426.49 47.55 426.92 47.4 426.49 47 426.68 47.19 426.28 46.77 426.13 47.19 425.98 47 425.57 47.4 425.76 47.55 425.34" fill="#fff"/>
  <polygon points="93.99 369.71 93.91 369.62 93.82 369.7 93.83 369.58 93.71 369.58 93.8 369.5 93.71 369.42 93.84 369.43 93.83 369.31 93.91 369.4 94 369.31 93.99 369.44 94.11 369.43 94.02 369.51 94.11 369.6 93.98 369.59 93.99 369.71" fill="#fff"/>
  <polygon points="53.98 635.09 53.77 634.76 53.38 634.74 53.63 634.44 53.52 634.06 53.89 634.21 54.21 633.99 54.19 634.38 54.5 634.62 54.12 634.72 53.98 635.09" fill="#fff"/>
  <polygon points="287.13 725.37 287.06 725.45 287.09 725.56 286.99 725.52 286.9 725.58 286.91 725.47 286.82 725.4 286.93 725.37 286.96 725.27 287.02 725.36 287.13 725.37" fill="#fff"/>
  <polygon points="214.02 670.4 214.1 670.64 214.33 670.53 214.22 670.76 214.46 670.85 214.22 670.93 214.33 671.16 214.1 671.05 214.02 671.29 213.93 671.05 213.71 671.16 213.81 670.93 213.58 670.85 213.81 670.76 213.71 670.53 213.93 670.64 214.02 670.4" fill="#fff"/>
  <polygon points="341.32 524.71 340.64 524.3 340.3 525.02 340.11 524.25 339.36 524.52 339.77 523.84 339.05 523.5 339.82 523.31 339.55 522.56 340.24 522.97 340.57 522.25 340.76 523.02 341.51 522.75 341.1 523.43 341.82 523.77 341.05 523.96 341.32 524.71" fill="#fff"/>
  <polygon points="374.38 617.8 375.5 617.9 375.49 616.77 376.21 617.64 377.01 616.83 376.9 617.96 378.04 617.95 377.16 618.67 377.97 619.47 376.85 619.36 376.86 620.49 376.13 619.62 375.34 620.43 375.44 619.3 374.31 619.31 375.18 618.59 374.38 617.8" fill="#fff"/>
  <polygon points="152.84 728.57 152.63 727.97 152.06 728.24 152.33 727.67 151.74 727.45 152.34 727.25 152.07 726.67 152.64 726.95 152.86 726.35 153.07 726.95 153.64 726.69 153.36 727.26 153.96 727.47 153.36 727.68 153.63 728.26 153.06 727.98 152.84 728.57" fill="#fff"/>
  <polygon points="34.76 673.74 34.65 673.55 34.47 673.67 34.53 673.46 34.32 673.42 34.51 673.32 34.38 673.13 34.6 673.2 34.64 672.98 34.74 673.17 34.92 673.05 34.86 673.26 35.08 673.3 34.89 673.41 35.01 673.59 34.8 673.53 34.76 673.74" fill="#fff"/>
  <polygon points="65.35 678.25 65.5 678.67 65.9 678.48 65.71 678.88 66.12 679.02 65.71 679.17 65.9 679.57 65.5 679.38 65.35 679.79 65.2 679.38 64.81 679.57 65 679.17 64.58 679.02 65 678.88 64.81 678.48 65.2 678.67 65.35 678.25" fill="#fff"/>
  <polygon points="131.07 622.59 131 622.5 130.92 622.59 130.93 622.47 130.81 622.48 130.9 622.4 130.82 622.32 130.93 622.33 130.93 622.22 131 622.3 131.08 622.22 131.07 622.34 131.19 622.33 131.1 622.41 131.18 622.49 131.07 622.48 131.07 622.59" fill="#fff"/>
  <polygon points="579.85 684.18 579.63 683.84 579.23 683.82 579.49 683.51 579.38 683.12 579.75 683.27 580.09 683.04 580.07 683.45 580.38 683.69 579.99 683.8 579.85 684.18" fill="#fff"/>
  <polygon points="778.34 719.52 778.41 719.73 778.62 719.64 778.52 719.84 778.73 719.91 778.52 719.99 778.62 720.19 778.41 720.1 778.34 720.31 778.26 720.1 778.06 720.19 778.16 719.99 777.95 719.91 778.16 719.84 778.06 719.64 778.26 719.73 778.34 719.52" fill="#fff"/>
  <polygon points="846.5 574.02 845.67 573.52 845.26 574.4 845.02 573.46 844.11 573.79 844.61 572.96 843.72 572.54 844.67 572.3 844.34 571.39 845.17 571.89 845.59 571.01 845.82 571.95 846.74 571.62 846.24 572.46 847.12 572.87 846.17 573.11 846.5 574.02" fill="#fff"/>
  <polygon points="900.32 667.38 900.75 667.42 900.75 666.99 901.02 667.32 901.32 667.02 901.28 667.45 901.71 667.44 901.38 667.72 901.69 668.02 901.26 667.98 901.26 668.41 900.99 668.08 900.69 668.38 900.73 667.95 900.3 667.96 900.63 667.68 900.32 667.38" fill="#fff"/>
  <polygon points="654.69 723.29 654.45 722.85 654.04 723.13 654.18 722.66 653.7 722.57 654.13 722.33 653.85 721.92 654.32 722.06 654.41 721.58 654.65 722.01 655.06 721.73 654.92 722.2 655.41 722.29 654.97 722.53 655.25 722.94 654.78 722.8 654.69 723.29" fill="#fff"/>
  <polygon points="676.49 727.07 676.69 727.62 677.21 727.37 676.96 727.9 677.51 728.09 676.96 728.29 677.21 728.82 676.69 728.57 676.49 729.12 676.3 728.57 675.77 728.82 676.02 728.29 675.47 728.09 676.02 727.9 675.77 727.37 676.3 727.62 676.49 727.07" fill="#fff"/>
  <polygon points="661.76 671.79 661.63 671.64 661.5 671.79 661.51 671.59 661.32 671.6 661.47 671.47 661.33 671.33 661.52 671.35 661.52 671.15 661.64 671.3 661.78 671.16 661.76 671.36 661.96 671.35 661.81 671.48 661.95 671.62 661.75 671.6 661.76 671.79" fill="#fff"/>
  <polygon points="172.22 6.86 172.05 7.07 172.12 7.32 171.87 7.22 171.65 7.38 171.66 7.11 171.45 6.94 171.71 6.87 171.8 6.62 171.95 6.85 172.22 6.86" fill="#fff"/>
  <polygon points="18.06 10.02 17.88 9.49 17.37 9.73 17.62 9.22 17.09 9.03 17.62 8.85 17.38 8.34 17.89 8.58 18.08 8.05 18.26 8.59 18.77 8.35 18.53 8.85 19.05 9.05 18.52 9.23 18.76 9.74 18.25 9.49 18.06 10.02" fill="#fff"/>
  <polygon points="716.38 28.29 716.27 28.43 716.32 28.61 716.15 28.54 716 28.64 716.01 28.46 715.87 28.35 716.04 28.3 716.1 28.13 716.2 28.29 716.38 28.29" fill="#fff"/>
  <polygon points="472.36 71.5 471.9 71.17 471.63 71.67 471.53 71.11 470.98 71.26 471.31 70.8 470.81 70.52 471.37 70.42 471.22 69.88 471.68 70.21 471.96 69.71 472.06 70.27 472.6 70.12 472.27 70.58 472.77 70.86 472.21 70.95 472.36 71.5" fill="#fff"/>
  <polygon points="507.21 31.24 507.06 30.8 506.64 30.99 506.84 30.58 506.41 30.42 506.85 30.27 506.65 29.85 507.07 30.05 507.23 29.62 507.38 30.05 507.8 29.86 507.59 30.27 508.03 30.43 507.59 30.59 507.79 31 507.37 30.8 507.21 31.24" fill="#fff"/>
  <polygon points="824.95 5.66 824.85 5.78 824.9 5.93 824.75 5.87 824.62 5.96 824.63 5.8 824.5 5.71 824.66 5.67 824.71 5.52 824.8 5.65 824.95 5.66" fill="#fff"/>
  <polygon points="641.78 48.78 641.36 48.48 641.11 48.94 641.01 48.43 640.52 48.57 640.81 48.14 640.36 47.89 640.87 47.8 640.73 47.3 641.16 47.6 641.41 47.15 641.5 47.66 642 47.52 641.7 47.94 642.15 48.19 641.64 48.28 641.78 48.78" fill="#fff"/>
  <polygon points="629.76 8.51 629.63 8.12 629.25 8.29 629.43 7.92 629.04 7.77 629.43 7.63 629.26 7.25 629.63 7.44 629.78 7.04 629.91 7.44 630.29 7.26 630.11 7.64 630.51 7.79 630.11 7.92 630.29 8.3 629.91 8.12 629.76 8.51" fill="#fff"/>
</svg>
